<?xml version="1.0" encoding="UTF-8" standalone="no"?>
<!-- Created with Inkscape (http://www.inkscape.org/) -->

<svg
   xmlns:dc="http://purl.org/dc/elements/1.1/"
   xmlns:cc="http://creativecommons.org/ns#"
   xmlns:rdf="http://www.w3.org/1999/02/22-rdf-syntax-ns#"
   xmlns:svg="http://www.w3.org/2000/svg"
   xmlns="http://www.w3.org/2000/svg"
   xmlns:sodipodi="http://sodipodi.sourceforge.net/DTD/sodipodi-0.dtd"
   xmlns:inkscape="http://www.inkscape.org/namespaces/inkscape"
   id="svg2"
   version="1.1"
   inkscape:version="0.91 r13725"
   width="390"
   height="390"
   viewBox="0 0 390 390"
   sodipodi:docname="icon-beche2.jpg.svg">
  <metadata
     id="metadata8">
    <rdf:RDF>
      <cc:Work
         rdf:about="">
        <dc:format>image/svg+xml</dc:format>
        <dc:type
           rdf:resource="http://purl.org/dc/dcmitype/StillImage" />
      </cc:Work>
    </rdf:RDF>
  </metadata>
  <defs
     id="defs6" />
  <sodipodi:namedview
     pagecolor="#ffffff"
     bordercolor="#666666"
     borderopacity="1"
     objecttolerance="10"
     gridtolerance="10"
     guidetolerance="10"
     inkscape:pageopacity="0"
     inkscape:pageshadow="2"
     inkscape:window-width="1920"
     inkscape:window-height="1149"
     id="namedview4"
     showgrid="false"
     inkscape:zoom="1.711561"
     inkscape:cx="124.71945"
     inkscape:cy="58.885256"
     inkscape:window-x="0"
     inkscape:window-y="0"
     inkscape:window-maximized="1"
     inkscape:current-layer="layer4" />
  <g
     inkscape:groupmode="layer"
     id="layer1"
     inkscape:label="Terre"
     style="display:inline" />
  <g
     inkscape:groupmode="layer"
     id="layer2"
     inkscape:label="Beche"
     style="display:inline" />
  <g
     inkscape:groupmode="layer"
     id="layer5"
     inkscape:label="Mesure" />
  <g
     inkscape:groupmode="layer"
     id="layer3"
     inkscape:label="Reflet beche"
     style="display:inline" />
  <g
     inkscape:groupmode="layer"
     id="layer4"
     inkscape:label="Manche"
     style="display:inline">
    <path
       sodipodi:nodetypes="zzzzzzzzzzzzzzzzzzzzzzzzzsccscccccccccccczzzzzzzzz"
       inkscape:connector-curvature="0"
       id="path3338-3"
       d="m 61.424035,334.12516 c 1.535912,-0.99705 3.046634,4.06615 7.854785,5.62887 4.808153,1.56271 14.366599,-0.35135 20.61885,0.43299 6.252241,0.78435 8.826429,4.27735 16.69142,3.89691 7.865,-0.38045 18.91255,-8.60475 27.98267,-9.52577 9.07012,-0.92102 16.02978,3.07117 24.5462,3.03093 8.51643,-0.0403 17.78279,-4.08996 26.01898,-3.46393 8.23619,0.62604 15.8302,7.18194 22.09159,6.49485 6.26138,-0.6871 7.55227,-6.40981 12.27309,-6.92784 4.72084,-0.51803 6.63287,4.71006 13.25495,3.89692 6.62208,-0.81315 11.53741,-12.07799 21.60067,-12.9897 10.06326,-0.9117 23.052,11.40955 31.91006,11.69072 8.85806,0.28118 12.25061,-4.50412 17.67326,-5.19587 5.42267,-0.69176 10.42997,1.94733 14.23681,0.43299 3.80685,-1.51434 7.79013,-2.83566 6.87293,-7.36083 -0.91719,-4.52518 -12.80168,-7.93118 -17.67326,-9.09279 -4.87159,-1.1616 -7.38922,2.04298 -9.81849,0 -2.42926,-2.04297 2.18043,-6.41097 -0.49091,-9.09277 -2.67133,-2.6818 -11.78218,-1.73196 -13.74588,-2.16495 -1.96369,-0.433 -3.40406,-5.14135 -6.38201,-6.49485 -2.97795,-1.35351 -7.89751,0.49404 -10.30941,-0.86598 -2.4119,-1.36002 -1.1672,-3.49856 -3.43646,-5.19587 -2.26927,-1.69731 -7.93117,-1.7272 -10.30941,-3.46392 -2.37826,-1.73673 -1.831,-4.2749 -3.92739,-5.62887 -2.09639,-1.35396 -6.87294,-1.51546 -7.85479,-1.73195 -0.98184,-0.2165 -6.28168,-4.34928 -8.26662,-5.19989 -6.35567,-2.72361 -9.98435,-2.72023 -14.59244,-3.69626 l -0.98184,2.48969 c 0,0 -2.45463,3.57217 -3.06828,3.89691 -0.61365,0.32474 -2.45463,2.70619 -2.45463,2.70619 l -1.84096,-0.97423 -5.27743,0.86598 6.78129,-1.71211 -2.57735,0.10825 -3.43648,1.73195 -5.27742,-0.75772 -10.6776,-1.19073 -10.18669,-2.92268 c -6.25353,-2.44075 -10.03588,-0.89007 -9.12635,-6.31564 l -9.90101,2.89033 -12.15137,8.21852 c 0,0 -10.77042,6.45133 -15.70451,10.15398 -4.9341,3.70265 -15.74026,1.94549 -20.37335,5.29508 -4.63309,3.34959 -3.18984,6.40414 -8.10024,9.09279 -4.910411,2.68865 -15.554795,0.6761 -21.10976,3.89691 -5.554963,3.2208 -9.573043,12.77318 -10.554889,13.20618 -0.981847,0.43299 -9.692269,0.25541 -12.518556,2.38144 -2.826286,2.12604 -4.330736,5.58329 -3.436469,7.79382 0.894266,2.21053 4.66607,3.56979 5.645627,2.81443 0.979559,-0.75536 -2.026841,-0.0854 -0.490928,-1.08248 z"
       style="display:inline;fill:#3d2312;fill-opacity:1;fill-rule:evenodd;stroke:#000000;stroke-width:0;stroke-linecap:butt;stroke-linejoin:miter;stroke-miterlimit:4;stroke-dasharray:none;stroke-opacity:1" />
    <g
       transform="matrix(1.2806428,0,0,1.2918499,516.74658,155.82649)"
       id="g3384">
      <path
         style="fill:#059d4c;fill-opacity:1;fill-rule:evenodd;stroke:#059d4c;stroke-width:1px;stroke-linecap:butt;stroke-linejoin:miter;stroke-opacity:1"
         d="m -214.27808,87.936564 c -1.26394,-8.625053 -3.57512,-13.410221 -5.98868,-17.81999 L -127.8073,4.533169 c 13.9964,21.136265 25.91832,44.93972 26.43785,83.403395 z"
         id="path3365"
         inkscape:connector-curvature="0"
         sodipodi:nodetypes="ccccc" />
      <path
         style="fill:#8cc340;fill-opacity:1;fill-rule:evenodd;stroke:#8cc340;stroke-width:1px;stroke-linecap:butt;stroke-linejoin:miter;stroke-opacity:1"
         d="m -222.47352,67.237815 c -2.9876,-4.938572 -8.88127,-9.666749 -15.49258,-11.361229 l 34.49682,-107.311971 c 28.99764,10.71333 54.36421,26.777712 72.91843,52.8813561 z"
         id="path3376"
         inkscape:connector-curvature="0"
         sodipodi:nodetypes="ccccc" />
      <path
         style="fill:#fbdd00;fill-opacity:1;fill-rule:evenodd;stroke:#fbdd00;stroke-width:1px;stroke-linecap:butt;stroke-linejoin:miter;stroke-opacity:1"
         d="m -261.51483,54.947031 c -0.41314,-1.445975 -36.14937,-106.175849 -36.14937,-106.175849 31.60891,-10.506533 61.409,-9.074836 90.27013,-1.445974 L -241.1679,55.360167 c -6.42227,-1.577876 -13.28431,-1.913069 -20.34693,-0.413136 z"
         id="path3378"
         inkscape:connector-curvature="0"
         sodipodi:nodetypes="ccccc" />
      <path
         style="fill:#f79837;fill-opacity:1;fill-rule:evenodd;stroke:#f79837;stroke-width:1px;stroke-linecap:butt;stroke-linejoin:miter;stroke-opacity:1"
         d="m -264.3035,56.083153 -36.87235,-106.485699 c -26.03524,10.439019 -50.49513,25.193159 -70.23305,52.8813561 l 92.12924,65.2754239 c 3.96617,-4.813655 8.2914,-9.304156 14.97616,-11.671081 z"
         id="path3380"
         inkscape:connector-curvature="0"
         sodipodi:nodetypes="ccccc" />
      <path
         style="fill:#bd2327;fill-opacity:1;fill-rule:evenodd;stroke:#bd2327;stroke-width:1px;stroke-linecap:butt;stroke-linejoin:miter;stroke-opacity:1"
         d="m -286.50954,88.411014 c -0.3001,-8.337402 1.97839,-13.66646 4.95763,-18.177966 L -373.68115,5.3707592 c -14.66899,21.4993528 -25.71737,46.8204618 -26.44068,83.0402548 z"
         id="path3382"
         inkscape:connector-curvature="0"
         sodipodi:nodetypes="ccccc" />
    </g>
    <g
       style="display:inline"
       id="g3392"
       transform="matrix(0.77208959,0,0,0.77208959,36.965425,56.126828)">
      <path
         sodipodi:nodetypes="cccccsscccc"
         inkscape:connector-curvature="0"
         id="path3357"
         d="m 169.46026,295.6383 c 3.26292,25.50868 36.15912,15.17157 53.48737,16.08864 l 20.5958,-55.78944 c -10.53496,-3.09852 -18.17797,0.14458 -27.26695,-4.95763 l 4.75106,-19.2108 c 0,0 -1.47113,0.73817 -2.27224,0.82627 -1.58753,0.17459 -3.21931,-0.16751 -4.75106,-0.6197 -1.53602,-0.45345 -4.33793,-2.06568 -4.33793,-2.06568 l -4.33792,18.17796 c -10.46028,0.41127 -19.49254,-6.1547 -28.91949,-4.95762 z"
         style="display:inline;fill:#6d6e72;fill-opacity:1;fill-rule:evenodd;stroke:#000000;stroke-width:0;stroke-linecap:butt;stroke-linejoin:miter;stroke-miterlimit:4;stroke-dasharray:none;stroke-opacity:1" />
      <path
         sodipodi:nodetypes="ccccc"
         inkscape:connector-curvature="0"
         id="path3360"
         d="m 208.66847,235.59577 -9.79533,56.28453 15.90572,-55.36017 -2.68538,-1.65254 z"
         style="fill:#979998;fill-opacity:1;fill-rule:evenodd;stroke:#000000;stroke-width:0;stroke-linecap:butt;stroke-linejoin:miter;stroke-miterlimit:4;stroke-dasharray:none;stroke-opacity:1" />
      <path
         sodipodi:nodetypes="ccccc"
         inkscape:connector-curvature="0"
         id="path3362"
         d="m 208.89169,238.27595 -5.45632,31.92099 7.59289,-31.10725 c -1.74062,-2.43097 -0.13557,-1.37712 -0.78761,-2.17523 z"
         style="fill:#ecedef;fill-opacity:1;fill-rule:evenodd;stroke:#000000;stroke-width:0;stroke-linecap:butt;stroke-linejoin:miter;stroke-miterlimit:4;stroke-dasharray:none;stroke-opacity:1" />
      <path
         sodipodi:nodetypes="cccc"
         inkscape:connector-curvature="0"
         id="path3364"
         d="m 230.96353,257.4857 -7.54276,46.83254 15.24734,-45.61926 c -2.18744,-1.17052 -6.73147,-1.2396 -7.70458,-1.21328 z"
         style="fill:#979998;fill-opacity:1;fill-rule:evenodd;stroke:#000000;stroke-width:0;stroke-linecap:butt;stroke-linejoin:miter;stroke-miterlimit:4;stroke-dasharray:none;stroke-opacity:1" />
      <path
         sodipodi:nodetypes="cccc"
         inkscape:connector-curvature="0"
         id="path3366"
         d="m 233.12836,258.92845 -3.85696,24.19349 7.95287,-23.34216 c -1.03666,-0.90557 -2.65758,-0.27542 -4.09591,-0.85133 z"
         style="fill:#ecedef;fill-opacity:1;fill-rule:evenodd;stroke:#000000;stroke-width:0;stroke-linecap:butt;stroke-linejoin:miter;stroke-miterlimit:4;stroke-dasharray:none;stroke-opacity:1" />
    </g>
    <path
       style="fill:#5a401b;fill-opacity:1;fill-rule:evenodd;stroke:#000000;stroke-width:0;stroke-linecap:butt;stroke-linejoin:miter;stroke-miterlimit:4;stroke-dasharray:none;stroke-opacity:1"
       d="m 198.83693,233.67661 31.49141,-141.289024 2.8708,-1.913867 3.18978,0.478467 3.03029,2.551822 -31.80072,141.654712 -1.27591,1.03101 c 0,0 -4.14671,-0.95693 -4.94415,-0.95693 -0.79745,0 -2.5615,-1.55619 -2.5615,-1.55619 z"
       id="path3369"
       inkscape:connector-curvature="0"
       sodipodi:nodetypes="cccccccsc" />
  </g>
</svg>
